<?xml version="1.0" encoding="utf-8"?>
<svg xmlns="http://www.w3.org/2000/svg" width="353" height="352" viewBox="0 0 353 352" fill="none">
<path d="M352.38 57.9689C352.38 25.9529 326.427 0 294.411 0H58.7687C26.7526 0 0.799805 25.9529 0.799805 57.9689C0.799805 73.1112 6.60844 86.8944 16.1096 97.2209C6.60223 107.547 0.799805 121.331 0.799805 136.473C0.799805 151.615 6.60844 165.398 16.1096 175.725C6.60223 186.052 0.799805 199.835 0.799805 214.977C0.799805 230.119 6.60844 243.903 16.1096 254.229C6.60223 264.556 0.799805 278.339 0.799805 293.481C0.799805 325.497 26.7526 351.45 58.7687 351.45H294.411C326.427 351.45 352.38 325.497 352.38 293.481C352.38 278.339 346.571 264.556 337.07 254.229C346.578 243.903 352.38 230.119 352.38 214.977C352.38 199.835 346.571 186.052 337.07 175.725C346.578 165.398 352.38 151.615 352.38 136.473C352.38 121.331 346.571 107.547 337.07 97.2209C346.578 86.8944 352.38 73.1112 352.38 57.9689V57.9689Z" fill="#1E5751"/>
<path d="M174.75 148.879V223.035M153.627 163.71H142.445M157.355 178.541H142.445M224.45 204.496V144.825C224.45 138.892 219.579 134.492 213.665 134.987H213.367C202.93 135.877 187.075 141.167 178.229 146.704L177.384 147.247C175.943 148.137 173.557 148.137 172.116 147.247L170.873 146.506C162.027 141.018 146.222 135.778 135.785 134.937C129.871 134.443 125.05 138.892 125.05 144.775V204.496C125.05 209.242 128.926 213.691 133.698 214.284L135.139 214.482C145.924 215.916 162.573 221.354 172.116 226.545L172.315 226.644C173.656 227.385 175.794 227.385 177.086 226.644C186.628 221.403 203.327 215.916 214.162 214.482L215.802 214.284C220.573 213.691 224.45 209.242 224.45 204.496Z" stroke="white" strokeWidth="5.325" strokeLinecap="round" strokeLinejoin="round"/>
</svg>